<svg width="50" height="50" viewBox="0 0 50 50" fill="none" xmlns="http://www.w3.org/2000/svg">
<path d="M41.771 22.9166H8.22929C7.13623 22.9166 6.25012 23.8027 6.25012 24.8958V25.1041C6.25012 26.1972 7.13623 27.0833 8.22929 27.0833H41.771C42.864 27.0833 43.7501 26.1972 43.7501 25.1041V24.8958C43.7501 23.8027 42.864 22.9166 41.771 22.9166Z" fill="#231F20"/>
<path d="M41.771 33.3333H8.22929C7.13623 33.3333 6.25012 34.2194 6.25012 35.3125V35.5208C6.25012 36.6138 7.13623 37.4999 8.22929 37.4999H41.771C42.864 37.4999 43.7501 36.6138 43.7501 35.5208V35.3125C43.7501 34.2194 42.864 33.3333 41.771 33.3333Z" fill="#231F20"/>
<path d="M41.771 12.5H8.22929C7.13623 12.5 6.25012 13.3861 6.25012 14.4791V14.6875C6.25012 15.7805 7.13623 16.6666 8.22929 16.6666H41.771C42.864 16.6666 43.7501 15.7805 43.7501 14.6875V14.4791C43.7501 13.3861 42.864 12.5 41.771 12.5Z" fill="#231F20"/>
</svg>
